<?xml version="1.0" encoding="UTF-8"?><svg id="Layer_2" xmlns="http://www.w3.org/2000/svg" viewBox="0 0 456.03 68.67"><g id="Layer_1-2"><path d="M61.04,33.14c-.76-.8-1.14-1.93-1.14-3.42,0-1.1.21-1.98.62-2.66.41-.68.97-1.19,1.69-1.55.71-.36,1.6-.64,2.66-.87.69-.16,1.24-.31,1.65-.45.4-.14.72-.33.95-.58.23-.25.34-.56.34-.95,0-.49-.17-.88-.52-1.17s-.79-.43-1.32-.43c-.6,0-1.09.18-1.47.55-.38.37-.57.84-.59,1.43h-3.7c.07-1.04.37-1.94.89-2.7.52-.76,1.21-1.34,2.06-1.74.85-.4,1.82-.6,2.92-.6.42,0,.88.05,1.37.14.11.04.21.06.32.07.1,0,.2.01.29.01.27,0,.5-.07.69-.21.18-.14.3-.38.36-.73h3.46c-.09.88-.4,1.58-.93,2.11-.53.53-1.2.8-2,.8h-.36l.27-.71c.62.24,1.12.67,1.48,1.29.37.62.55,1.34.55,2.17v11.22h-3.79v-8.56h.38c-.04.48-.23.84-.58,1.1-.35.26-.87.49-1.56.71-.02,0-.03,0-.04.01,0,0-.02.01-.04.01-.53.15-.95.29-1.25.44-.3.15-.55.36-.75.64-.2.28-.3.66-.3,1.14,0,.57.14,1.01.43,1.34.28.33.66.49,1.14.49.15,0,.29-.02.44-.06.15-.04.28-.08.41-.14l.36,2.66c-.27.13-.59.22-.96.27-.37.05-.75.08-1.15.08-1.41,0-2.49-.4-3.25-1.19Z"/><path d="M73.1,31.26h.69c.27,0,.48-.07.62-.22.14-.15.21-.35.21-.6v-5.29c.31-.13.56-.32.74-.56.18-.25.27-.53.27-.84,0-.42-.15-.76-.45-1.03-.3-.27-.71-.42-1.22-.45.24-1.3.92-2.33,2.04-3.1s2.49-1.15,4.1-1.15c1.19,0,2.23.22,3.13.64.9.43,1.59,1.04,2.09,1.82.49.79.74,1.7.74,2.74v10.95h-3.81v-10.84c0-.68-.2-1.22-.6-1.62-.4-.4-.96-.6-1.67-.6-.62,0-1.16.15-1.6.44-.45.29-.73.69-.84,1.18l-.03-.77c.46.15.82.4,1.1.77.27.37.41.78.41,1.24s-.15.91-.44,1.3c-.29.39-.67.64-1.12.75l.91-1.26v6.25c0,.99-.28,1.76-.84,2.32-.56.56-1.32.84-2.29.84h-2.11v-2.91Z"/><path d="M90.01,21.71c-.25-.24-.6-.36-1.06-.36h-1.43v-3.04h2.85c1.23,0,2.17.31,2.84.93.67.62,1,1.5,1,2.63v12.29h-3.84v-11.44c0-.44-.12-.78-.37-1.01Z"/><path d="M98.65,33.77c-.63-.39-1.12-.96-1.45-1.7-.34-.74-.51-1.6-.51-2.57v-8.61c0-1.19-.08-2.05-.25-2.58h4.06v10.86c0,.59.16,1.06.49,1.41s.76.54,1.29.54c.44,0,.83-.13,1.18-.38.35-.26.61-.62.8-1.08.18-.47.27-1.01.27-1.63v-9.71h3.81v10.67c0,1.28.09,3.01.27,5.18h-3.51l-.11-.99c-.05-.51-.1-1-.12-1.45-.03-.46-.05-.84-.07-1.15v-1.81h.77c-.11,1.68-.59,3.04-1.45,4.06-.86,1.02-1.95,1.54-3.26,1.54-.84,0-1.58-.2-2.21-.59Z"/><path d="M97.82,13.84h10.53v2.61h-10.95l.41-2.61Z"/><path d="M111.52,33.14c-.76-.8-1.14-1.93-1.14-3.42,0-1.1.21-1.98.62-2.66.41-.68.97-1.19,1.69-1.55.71-.36,1.6-.64,2.66-.87.69-.16,1.24-.31,1.65-.45.4-.14.72-.33.95-.58.23-.25.34-.56.34-.95,0-.49-.17-.88-.52-1.17s-.79-.43-1.32-.43c-.6,0-1.09.18-1.47.55-.38.37-.57.84-.59,1.43h-3.7c.07-1.04.37-1.94.89-2.7.52-.76,1.21-1.34,2.06-1.74.85-.4,1.82-.6,2.92-.6.42,0,.88.05,1.37.14.11.04.21.06.32.07.1,0,.2.01.29.01.27,0,.5-.07.69-.21.18-.14.3-.38.36-.73h3.46c-.09.88-.4,1.58-.93,2.11-.53.53-1.2.8-2,.8h-.36l.27-.71c.62.24,1.12.67,1.48,1.29.37.62.55,1.34.55,2.17v11.22h-3.79v-8.56h.38c-.04.48-.23.84-.58,1.1-.35.26-.87.49-1.56.71-.02,0-.03,0-.04.01,0,0-.02.01-.04.01-.53.15-.95.29-1.25.44-.3.15-.55.36-.75.64-.2.28-.3.66-.3,1.14,0,.57.14,1.01.43,1.34.28.33.66.49,1.14.49.15,0,.29-.02.44-.06.15-.04.28-.08.41-.14l.36,2.66c-.27.13-.59.22-.96.27-.37.05-.75.08-1.15.08-1.41,0-2.49-.4-3.25-1.19Z"/><path d="M111.23,13.84h10.53v2.61h-10.95l.41-2.61Z"/><path d="M125.72,19.31c.73-.76,1.77-1.15,3.13-1.17.11.38.36.69.74.91s.84.33,1.37.33.98-.11,1.36-.33.62-.52.73-.91c1.39.02,2.47.41,3.24,1.18s1.15,1.81,1.15,3.13v11.71h-3.59v-11.14c0-.44-.05-.81-.15-1.11-.1-.3-.27-.54-.51-.7-.26.29-.58.52-.97.69-.39.16-.81.25-1.25.25s-.86-.09-1.28-.26c-.41-.17-.74-.4-.97-.67-.24.15-.42.37-.53.67-.12.3-.18.68-.18,1.14v3.92l-.27,5.13h.11l.96-2,1.48-2.96h-1.23v-2.58h3.65v3.4l-3.48,6.23h-4.58v-11.71c0-1.34.37-2.38,1.1-3.14Z"/><path d="M60.29,46.76h3.87l1.76,7.27-1.1-.66h.66c.44-.13.81-.45,1.12-.97.31-.52.55-1.19.71-2,.16-.81.25-1.71.25-2.7,0-1.06-.09-1.94-.27-2.65-.18-.7-.45-1.23-.81-1.59-.36-.36-.8-.53-1.33-.53-.59,0-1.07.19-1.45.58s-.6.91-.66,1.56h-3.7c.16-1.61.76-2.88,1.8-3.83,1.03-.94,2.39-1.41,4.07-1.41,1.32,0,2.44.3,3.37.91.93.6,1.64,1.48,2.13,2.63.48,1.15.73,2.55.73,4.2s-.22,3.06-.67,4.35c-.45,1.29-1.09,2.29-1.92,3-.83.71-1.79,1.07-2.87,1.07h-2.99l-1.73-6.67c-.29-1.13-.61-1.98-.96-2.55Z"/><path d="M67,60.42c-.12-.11-.28-.16-.48-.16h-1.12v-2.55h2.83c.73,0,1.29.19,1.67.56s.58.92.58,1.63v3.32h-3.29v-2.3c0-.22-.06-.38-.18-.49Z"/><path d="M74.69,55.08c-.73-.72-1.1-1.68-1.1-2.87v-9.52c0-1.19-.09-2.05-.27-2.58h3.84v11.69c0,.4.1.72.3.95.2.23.47.34.8.34.35,0,.62-.11.82-.34.2-.23.3-.54.3-.95v-8.2h2.91v8.2c0,.4.1.72.3.95.2.23.48.34.82.34.33,0,.59-.11.8-.34.2-.23.3-.54.3-.95v-8.7c0-.62-.17-1.1-.52-1.44-.35-.34-.85-.51-1.51-.51h-2.52v-2.61h1.98c.66,0,1.2-.1,1.63-.3.43-.2.75-.52.97-.95.22-.43.35-.97.38-1.63h3.37c-.04,1.32-.43,2.35-1.19,3.1-.76.75-1.78,1.12-3.06,1.12v-.6c1.28.07,2.27.43,2.98,1.07.7.64,1.06,1.5,1.06,2.58v9.27c0,1.19-.36,2.14-1.08,2.87-.72.72-1.66,1.08-2.81,1.08-1.02,0-1.89-.29-2.61-.86-.71-.58-1.11-1.32-1.18-2.24h.85c-.07.93-.45,1.68-1.12,2.25-.68.57-1.54.85-2.58.85-1.17,0-2.12-.36-2.85-1.08Z"/><path d="M92.23,43.52c-.25-.24-.6-.36-1.06-.36h-1.43v-3.05h2.85c1.23,0,2.17.31,2.84.93.67.62,1,1.5,1,2.63v12.29h-3.84v-11.44c0-.44-.12-.78-.37-1.01Z"/><path d="M99.23,47.4c-.72-.83-1.08-1.92-1.08-3.28s.34-2.32,1.03-3.07,1.66-1.12,2.92-1.12c.37,0,.69.03.97.1.28.06.53.15.73.26l-.36,2.36c-.16-.09-.37-.14-.6-.14-.35,0-.63.15-.85.44-.22.29-.33.67-.33,1.13,0,.53.15.94.45,1.23.3.29.69.44,1.17.44.4,0,.75-.1,1.04-.29.29-.19.51-.48.66-.85.15-.37.22-.84.22-1.39h.63v2.3c-.2.93-.62,1.69-1.25,2.26-.63.58-1.45.86-2.46.86-1.21,0-2.17-.42-2.89-1.25ZM105.2,40.12h3.84v15.86h-3.84v-15.86Z"/><path d="M47.14,31.29c-1.72-1.72-3.73-3.06-5.92-3.96-2.18-.91-4.55-1.38-6.99-1.38-4.44,0-8.64,1.58-11.96,4.47l-2.22-2.22,11.99-11.99-.91-.91c-3.45-3.45-8.03-5.35-12.9-5.35-4.87,0-9.46,1.9-12.9,5.35C1.9,18.74,0,23.32,0,28.2s1.9,9.46,5.34,12.9c3.45,3.45,8.03,5.34,12.9,5.34,4.44,0,8.64-1.58,11.96-4.47h0l2.22,2.22-6.18,6.18-1.82,1.81-4,4,.91.91c3.45,3.45,8.03,5.34,12.9,5.34,4.44,0,8.64-1.58,11.96-4.47.32-.28.64-.57.94-.87s.6-.62.87-.94c6.23-7.16,5.93-18.06-.87-24.86ZM16.43,28.2l4,4,3.94,3.94c-3.93,3.03-9.61,2.75-13.21-.85-3.91-3.91-3.91-10.27,0-14.18,1.95-1.95,4.52-2.93,7.09-2.93,2.16,0,4.33.69,6.13,2.08l-7.94,7.94ZM18.25,43.88c-4.19,0-8.13-1.63-11.09-4.59-2.96-2.96-4.59-6.9-4.59-11.09s1.63-8.13,4.59-11.09c2.96-2.96,6.9-4.59,11.09-4.59,3.76,0,7.31,1.31,10.14,3.72l-2.19,2.19c-4.94-4.03-12.25-3.74-16.85.86-4.91,4.91-4.91,12.9,0,17.8,2.45,2.46,5.68,3.68,8.9,3.68,2.82,0,5.64-.94,7.95-2.82h0l2.19,2.19c-2.83,2.41-6.38,3.72-10.14,3.72ZM32.05,40.19l-3.94-3.94c3.93-3.03,9.61-2.75,13.21.85,1.89,1.89,2.94,4.41,2.94,7.09,0,2.25-.73,4.38-2.09,6.13l-7.94-7.94-2.18-2.18ZM34.24,46.01l6.12,6.12c-.11.09-.23.17-.34.25-.09.06-.18.12-.26.18,0,0,0,0-.01,0-.07.04-.13.09-.2.13-.07.04-.14.09-.21.13-.07.04-.14.08-.22.12-.07.04-.14.08-.22.12-.1.05-.21.11-.31.15-.13.06-.26.12-.4.18-.12.05-.25.11-.37.15-.14.05-.28.1-.41.15-.11.03-.21.07-.32.1-.04.01-.08.02-.11.03-.11.03-.22.06-.33.09,0,0-.02,0-.03,0-.11.02-.21.05-.32.07-.05.01-.1.02-.15.03-.09.02-.19.03-.28.05-.01,0-.03,0-.05,0-.12.02-.25.04-.37.05-.1.01-.2.02-.29.03-.07,0-.13.01-.2.02-.08,0-.16.01-.24.01-.05,0-.1,0-.15,0-.11,0-.22,0-.33,0s-.22,0-.33,0c-.05,0-.1,0-.15,0-.08,0-.16,0-.24-.01-.07,0-.13,0-.2-.02-.1,0-.2-.02-.29-.03-.12-.01-.25-.03-.37-.05-.12-.02-.24-.04-.36-.07-.05,0-.1-.02-.14-.03-.21-.04-.41-.09-.62-.15-.05-.01-.1-.03-.15-.04-.25-.08-.51-.16-.76-.26-.1-.04-.2-.08-.29-.12-.25-.11-.51-.23-.76-.36-.07-.04-.14-.08-.21-.12-.07-.04-.14-.08-.22-.12-.07-.04-.14-.09-.21-.13-.07-.04-.13-.08-.2-.13,0,0,0,0-.01,0-.09-.06-.18-.12-.26-.18-.11-.08-.23-.16-.34-.25l6.12-6.12ZM34.24,59.87c-3.76,0-7.32-1.31-10.14-3.72l2.19-2.19c.22.18.44.34.66.5.08.05.15.11.22.16.08.05.15.1.23.15.08.05.15.1.23.15.31.19.63.37.95.53.06.03.12.06.19.09.11.05.22.11.33.15.06.03.13.06.19.08.07.03.13.06.2.08.08.03.16.06.23.09.03.01.06.02.09.03.17.06.33.12.51.18.37.12.74.22,1.11.31.06.01.11.02.17.04.44.1.89.17,1.34.21.07,0,.15.01.22.02.18.01.36.03.54.03.09,0,.18,0,.27,0,.18,0,.35,0,.53,0,.09,0,.18,0,.27,0,.18,0,.36-.02.54-.03.07,0,.14-.01.21-.02.5-.05.99-.13,1.49-.24.08-.02.15-.03.23-.05.51-.12,1.01-.28,1.51-.47.08-.03.16-.06.23-.09.07-.02.13-.05.2-.08.06-.03.13-.05.19-.08.81-.36,1.58-.8,2.31-1.34.07-.05.14-.11.22-.16.1-.07.19-.15.29-.23h0l.05.04,2.15,2.15c-2.83,2.41-6.39,3.72-10.14,3.72ZM46.2,54.33l-2.15-2.15h0s-.05-.05-.05-.05h0c1.83-2.24,2.83-5.02,2.83-7.95,0-3.36-1.31-6.52-3.69-8.9-4.6-4.6-11.91-4.89-16.85-.86l-2.19-2.19c2.83-2.41,6.39-3.72,10.14-3.72,4.19,0,8.13,1.63,11.09,4.59,5.81,5.81,6.1,15.08.87,21.23Z"/><path d="M171.14,35.92h0c0,1.37-1.11,2.49-2.49,2.49h-5.34c-1.37,0-2.49-1.11-2.49-2.49v-1.58c0-1.11.07-2.22.22-3.33l1.08-7.96c.03-.22.03-.44,0-.66l-1.08-8.01c-.15-1.1-.22-2.21-.22-3.31v-1.54c0-1.37,1.11-2.49,2.49-2.49h11.05c6.5,0,9.68,3.41,9.68,10.4s-3.18,10.4-9.68,10.4h-2.97c-.83,0-1.42.79-1.19,1.59l.04.13c.6,2.07.9,4.22.9,6.38ZM172.79,22.09c2.42,0,3.68-1.61,3.68-4.66s-1.25-4.71-3.68-4.71h-1.81c-.69,0-1.24.56-1.24,1.24v6.88c0,.69.56,1.24,1.24,1.24h1.81Z"/><path d="M206.28,29.71h.16c1.37,0,2.49,1.11,2.49,2.49v3.72c0,1.37-1.11,2.49-2.49,2.49h-18.69c-1.37,0-2.49-1.11-2.49-2.49v-1.58c0-1.11.07-2.22.22-3.32l1.08-7.99c.03-.22.03-.44,0-.66l-1.08-7.99c-.15-1.1-.22-2.21-.22-3.32v-1.54c0-1.37,1.11-2.49,2.49-2.49h18.69c1.37,0,2.49,1.11,2.49,2.49v3.68c0,1.37-1.11,2.49-2.49,2.49h-.16c-3.25,0-6.47-.64-9.48-1.88l-.9-.37c-.82-.34-1.72.26-1.72,1.15v4.03c0,.69.56,1.24,1.24,1.24h5.37c1.37,0,2.49,1.11,2.49,2.49v.77c0,1.37-1.11,2.49-2.49,2.49h-5.37c-.69,0-1.24.56-1.24,1.24v3.98c0,.88.9,1.49,1.72,1.15l.9-.37c3.01-1.24,6.23-1.88,9.48-1.88Z"/><path d="M212.11,22.38l-1.08-8.01c-.15-1.1-.22-2.21-.22-3.31v-1.54c0-1.37,1.11-2.49,2.49-2.49h11.41c8.25,0,12.01,4.93,12.01,15.69s-3.76,15.69-12.01,15.69h-11.41c-1.37,0-2.49-1.11-2.49-2.49v-1.58c0-1.11.07-2.22.22-3.33l1.08-7.96c.03-.22.03-.44,0-.66ZM223.36,32.66c3.9,0,5.78-3.18,5.78-9.95s-1.84-9.99-5.78-9.99h-2.39c-.69,0-1.24.56-1.24,1.24v17.46c0,.69.56,1.24,1.24,1.24h2.39Z"/><path d="M184.7,66.67c3.65.27,4.17-1.55,4.54-2.66.22-.67.19-3.7.29-5.55.04-.81.1-1.61.15-2.42.02-.36.03-.72.05-1.05-.3.03-1.5.42-2.33.35-.98-.04-1.96-.26-2.91-.5-.82-.21-1.51-.69-2.12-1.28-.67-.65-1.07-1.43-.97-2.38.17-1.47.32-2.96.61-4.41.32-1.61.77-3.19,1.22-4.77.24-.84.67-1.08,1.51-1.05.76.03,1.17.33,1.29,1.1.11.69.18,1.4.17,2.1,0,1.51-.06,3.02-.1,4.54-.02.76-.05,1.51-.05,2.27,0,1.6-.13,2.29,1.45,2.19.78-.05,1.56-.14,2.43-.22.13-.92.25-1.79.37-2.67.32-2.38.83-4.72,1.46-7.04.08-.3.18-.6.3-.89.28-.66.68-.91,1.4-.91.73,0,1.15.24,1.34.96.28,1.08.57,2.18.64,3.29.16,2.47.26,4.95.26,7.42,0,2.71-.11,5.42-.22,8.13-.03.86-.14,1.72-.3,2.56-.5,2.57-2.14,4.13-4.72,4.54-3.34.53-6.69.54-9.79-.74-1.8-.74-2.5-3.03-2.04-4.94.1-.4.21-.81.38-1.19.38-.87,2.16-1.19,2.83-.51.62.63.49,1.96.34,2.87s.23,2.68,2.51,2.84Z"/><path d="M212.54,58.74c-.11,1.05-.8,2.96-1.39,3.82-1.77,2.53-5.05,3.75-7.92,2.91-1.62-.47-2.89-1.42-3.79-2.85-.9-1.43-1.48-2.99-1.72-4.66-.57-3.91-.17-7.75.83-11.54.12-.48.32-.94.49-1.4.92-2.4,2.72-3.68,5.22-4.03.52-.07,1.04-.11,1.56-.16.67-.06,1.61.05,2.24.29,1.34.52,2.91,1.88,3.35,4.01,1.44,7.06,1.7,8.34,1.13,13.61ZM207.45,42.76c-.16-.25-.72-.93-1.72-.69-.79.11-1.29.56-1.49,1.31-.17.63-.33,1.27-.38,1.91,0,0-2.25,11.85-.91,15.99.29.91.69,1.77,1.43,2.47.53.5,1.61.52,2.19.1,1.43-1.03,1.77-2.45,1.91-4.23.35-4.4.25-14.88-1.03-16.87Z"/><path d="M227.38,61.31c-2.29,1.46-4.75,1.87-7.37,1.44-1.3-.21-2.41-.83-3.36-1.73-.78-.74-1.1-1.69-1.27-2.71-.46-2.75-.54-5.5-.1-8.25.4-2.49.85-4.98,1.33-7.46.17-.87.61-1.15,1.5-1.19.81-.03,1.34.23,1.57,1.01.33,1.12.6,2.27.78,3.42.51,3.18.53,6.39.4,9.6-.04,1.02-.06,2.03-.05,3.05,0,.94.33,1.73,1.18,2.23.5.3,1.01.39,1.57.21.93-.29,1.59-.88,1.93-1.79.1-.26.15-.57.1-.83-.45-2.82-.46-5.66-.3-8.5.13-2.24.26-4.47.41-6.71.02-.34.08-.67.16-1,.2-.85.58-1.16,1.48-1.24.91-.08,1.3.13,1.64.98.63,1.59.88,3.26.98,4.96.14,2.43-.05,4.84-.25,7.26-.1,1.27-.13,2.55-.18,3.83-.01.26.02.52.04.78.12,1.33.23,1.41,1.59,1.37.49-.01,1,.02,1.46.16.54.17.6.63.11.91-.46.26-1,.46-1.53.54-1.3.18-2.6.2-3.81-.34Z"/><path d="M170.47,55.86c-.89-.17-1.72-.28-2.53-.49-2.47-.65-3.32-1.69-3.43-4.25-.09-2.1.25-4.16.7-6.2.21-.97.47-1.92.71-2.88.14-.56.37-1.02,1.05-1.08.82-.06,1.33.17,1.67.87.42.89.54,1.85.57,2.82.07,1.88.07,3.75.14,5.63.02.7.08,1.41.22,2.09.17.83.43.97,1.39.97.1-.43.21-.88.31-1.33.32-1.45.71-2.88,1.32-4.25.3-.68.63-.86,1.26-.81.5.04.84.32.99.76.21.61.38,1.25.49,1.88.16.98.24,1.96.36,2.95.03.28.07.57.13.95.4,0,.79-.04,1.16,0,.61.09,1.23.2,1.82.39.23.07.47.36.54.6.09.34-.22.59-.51.7-.56.2-1.14.36-1.72.49-.38.09-.77.1-1.2.14-.02.27-.05.49-.05.72-.03,1.46-.07,2.92-.08,4.38-.01,1.39-.28,2.74-.56,4.1-.2.96-.77,1.53-1.7,1.71-.5.09-1.04.12-1.55.05-.96-.14-1.56-.67-1.77-1.7-.36-1.82-.26-3.63-.11-5.45.11-1.24.24-2.48.37-3.76Z"/><path d="M311.61,36.01c-.83-.48-1.79-.61-2.71-.37-.93.24-1.7.83-2.18,1.66-.02.04-.04.08-.06.12-1.92,4.41-5.06,8.04-8.93,10.56,0-.05,0-.09,0-.14h0c0-1.83-1.48-3.3-3.29-3.3-1.18,0-2.27.64-2.86,1.66-1.17,1.93-2.48,3.75-3.92,5.46-.99.12-1.99.19-3,.19-1.54,0-3.05-.14-4.53-.43,2.08-.42,4.03-1.3,5.75-2.6,3.03-2.3,4.98-5.62,5.5-9.37,0,0,0,0,0,0,.61-4.37,3.66-8.48,7.43-9.99.49-.2.78-.69.72-1.22-.06-.52-.46-.94-.98-1.02-.69-.1-1.4-.16-2.11-.16-3.13,0-6.1,1-8.58,2.88-.65.49-1.34,1.17-1.96,1.88-1.05-2.5-2.41-4.86-4.05-7.05-2.1-2.79-4.6-5.22-7.45-7.23-2.89-2.04-6.06-3.59-9.43-4.62-.35-.11-.72-.04-1.02.17-.29.21-.47.55-.49.91-.01.37-.02.74-.02,1.11,0,3.67.59,7.27,1.76,10.71,1.13,3.33,2.78,6.44,4.9,9.26,1.15,1.52,2.41,2.94,3.79,4.24-3.35-.11-6.49-1.63-8.67-4.2-.3-.35-.78-.5-1.22-.36-.44.13-.77.51-.82.97-.07.58-.11,1.16-.11,1.74,0,4.97,2.57,9.36,6.45,11.9,0,0,.02.02.03.02,4.44,3.12,9.66,4.77,15.11,4.77.24,0,.47,0,.71,0-3.07,3.1-6.6,5.73-10.5,7.79-.57.3-.79,1-.49,1.57.21.4.61.62,1.03.62.18,0,.37-.04.54-.13,4.9-2.59,9.26-6.04,12.89-10.17,1.61-.26,3.17-.66,4.68-1.21-1.16,2.58-2.57,5.04-4.23,7.36-.25.36-.28.83-.08,1.21.2.39.61.63,1.05.63.04,0,.08,0,.12,0,11.66-1.34,21.08-10.37,22.92-21.97.32-1.51-.37-3.08-1.71-3.86ZM286.18,44.22c-2.46-.88-4.75-2.05-6.84-3.46,2.23-.84,4.22-2.23,5.79-4.07.64,2.42,1,4.94,1.05,7.53ZM289.27,31.81c1.48-1.12,3.17-1.87,4.96-2.21-2.68,2.33-4.6,5.75-5.13,9.41-.01.05-.02.1-.02.15,0,.02,0,.04,0,.06-.13.9-.37,1.78-.69,2.61-.22-2.55-.74-5.05-1.53-7.48.71-.92,1.62-1.93,2.43-2.55ZM265.78,15.66c8.75,3.15,15.39,9.9,18.48,18.3,0,0-.01.02-.02.03h0c-1.7,2.58-4.3,4.36-7.23,5.04-6.86-5.62-11.08-14.05-11.24-23.36ZM265.46,38.58c2.5,1.99,5.6,3.09,8.85,3.09.72,0,1.44-.06,2.14-.16.36.28.73.55,1.1.81,2.38,1.68,4.96,3.03,7.67,4.03-.24.21-.49.42-.75.62-2.08,1.58-4.56,2.41-7.18,2.41-6.19,0-11.29-4.75-11.84-10.8ZM291.2,50.95c.85-1.14,1.64-2.33,2.38-3.55,0-.01.01-.02.02-.03.17-.3.49-.49.84-.49.49,0,.89.36.95.83-.2.65-.41,1.29-.64,1.92-1.14.53-2.33.97-3.55,1.32ZM311.04,39.41s-.02.1-.03.15c-1.55,9.66-8.89,17.37-18.28,19.52,1.54-2.46,2.84-5.06,3.88-7.77,5.31-2.71,9.65-7.2,12.14-12.88.36-.56,1.1-.74,1.69-.4.48.28.72.84.59,1.38Z"/><path d="M276.57,16.8c3.52-2.07,7.56-3.17,11.67-3.17,11.56,0,21.39,8.63,22.87,20.08.08.59.58,1.02,1.15,1.02.05,0,.1,0,.15,0,.64-.08,1.09-.67,1.01-1.3-.78-6.07-3.75-11.66-8.35-15.73-4.64-4.11-10.62-6.38-16.83-6.38-4.53,0-8.97,1.21-12.85,3.49-.55.33-.74,1.04-.41,1.59s1.04.74,1.59.41Z"/><path d="M321.9,15.16h10.47c5.14,0,7.94,3.42,7.94,9.72s-2.94,9.72-7.94,9.72h-10.47V15.16ZM331.26,30.8c2.86,0,4.33-2,4.33-5.91s-1.44-5.91-4.33-5.91h-4.64v11.83h4.64Z"/><path d="M341.7,15.16h4.72v7.78h8.08v-7.78h4.72v19.44h-4.72v-7.8h-8.08v7.8h-4.72V15.16Z"/><path d="M366.03,15.16h6.72l6.28,19.44h-4.94l-1.31-4.14h-6.78l-1.31,4.14h-4.97l6.3-19.44ZM371.58,26.6l-2.19-7-2.19,7h4.39Z"/><path d="M321.24,52.97v-.25h4.72v.22c0,1.53,1.28,2.33,3.8,2.33s3.86-.72,3.86-2.17c0-1-.64-1.64-1.92-1.94l-5.53-.97c-3.08-.64-4.67-2.5-4.67-5.47,0-3.89,2.67-5.78,8.27-5.78s8.3,1.86,8.3,5.8v.17h-4.72v-.17c0-1.42-1.17-2.14-3.55-2.14s-3.58.64-3.58,1.89c0,1.06.69,1.72,2.11,2.03l5.3.97c3.17.64,4.69,2.36,4.69,5.25,0,4.14-2.78,6.19-8.5,6.19s-8.61-2-8.61-5.97Z"/><path d="M339.09,48.95c0-6.61,3.36-10,9.77-10,5.3,0,8.5,2.17,9.41,6.39h-4.72c-.72-1.69-2.28-2.55-4.58-2.55-3.42,0-5.16,2.05-5.16,6.16s1.75,6.14,5.16,6.14c2.47,0,4.05-1.11,4.58-3.19v-.97h-4.89v-3.72h9.61v11.47h-3.67l-.58-1.72c-1.39,1.31-3.42,2-6,2-5.89,0-8.94-3.39-8.94-10Z"/><path d="M359.45,48.95c0-6.66,3.33-10,9.75-10,5.36,0,8.55,2.33,9.44,6.97h-4.72c-.69-2.11-2.22-3.14-4.64-3.14-3.42,0-5.11,1.97-5.11,6.16s1.69,6.14,5.11,6.14c2.42,0,3.94-1.03,4.64-3.14h4.72c-.89,4.64-4.08,7-9.44,7-6.41,0-9.75-3.36-9.75-10Z"/><path d="M380,51.42v-12.27h4.72v12.41c0,2.39,1.33,3.53,4.05,3.53s4.05-1.17,4.05-3.53v-12.41h4.72v12.27c0,4.97-3,7.53-8.77,7.53s-8.77-2.55-8.77-7.53Z"/><path d="M438.41,60.94c0,.64-.19,1.15-.56,1.54-.38.38-.87.57-1.5.57s-1.13-.19-1.51-.57c-.38-.38-.58-.89-.58-1.54v-9.38h-2.72v9.45c0,.86.2,1.61.6,2.26.4.65.96,1.15,1.69,1.51.73.36,1.57.54,2.52.54s1.79-.18,2.51-.54c.72-.36,1.28-.86,1.68-1.51s.6-1.4.6-2.26v-9.45h-2.72v9.38Z"/><path d="M450.35,52.09c-.66-.42-1.42-.65-2.29-.72.09-.45.46-2.87-.59-5.88-.35-.99-.88-2.12-1.69-3.3,6.37-1.66,9.24-4.71,9.41-4.89l.85-.92-.95-.81c-3.12-2.65-7.14-4.1-10.65-4.88l-7.94-30.69-7.94,30.69c-3.51.79-7.54,2.23-10.65,4.88l-.95.81.85.92c.16.18,3.04,3.23,9.41,4.89-.81,1.17-1.34,2.3-1.69,3.3-1.05,3-.67,5.42-.59,5.88-.14,0-.28-.02-.42-.02-1.27,0-2.32.38-3.17,1.14-.84.76-1.4,1.81-1.66,3.15h2.65c.16-.64.41-1.14.77-1.51.36-.37.8-.55,1.34-.55s.98.19,1.36.56.66.91.84,1.62c.19.7.28,1.56.28,2.58s-.09,1.88-.28,2.58c-.19.7-.47,1.24-.83,1.62-.37.38-.82.56-1.37.56-.5,0-.93-.17-1.29-.5-.36-.34-.64-.82-.83-1.47-.16-.52-.25-1.14-.28-1.83h2.45v-1.99h-4.99c-.06.42-.09.89-.09,1.41,0,1.36.2,2.54.61,3.53.41.99.99,1.75,1.76,2.29.77.53,1.68.8,2.74.8s1.98-.28,2.77-.84c.78-.56,1.38-1.37,1.78-2.41.41-1.05.61-2.3.61-3.75s-.2-2.68-.61-3.73c-.41-1.05-1-1.85-1.78-2.4-.05-.03-.1-.07-.15-.1l9.36-3.73,8.72,3.47c-.38.18-.72.4-1.03.68-.85.78-1.34,1.82-1.47,3.13h2.65c.06-.62.29-1.12.67-1.49.38-.37.88-.55,1.49-.55.53,0,.98.16,1.34.47.36.31.63.79.82,1.43.19.64.28,1.45.28,2.41s-.09,1.77-.27,2.53c-.18.76-.44,1.39-.76,1.86-.28.41-.62.67-1.01.77l-1.41-5.78h-2.88v1.99h.84l1.46,5.79h2.18c.91,0,1.71-.31,2.42-.94.7-.63,1.25-1.49,1.63-2.6.38-1.11.58-2.35.58-3.73s-.2-2.59-.61-3.55c-.41-.96-1-1.69-1.77-2.18ZM422.41,37.7h9.39c-1.13.79-2.08,1.59-2.87,2.41-2.85-.62-5.01-1.56-6.52-2.41ZM435.28,46.24l-8.08,3.22c.03-1.55.47-4.11,2.59-6.71,1.64.28,3.47.46,5.49.49v3ZM435.28,40.82c-1.18-.02-2.29-.1-3.33-.21.92-.75,2.02-1.48,3.33-2.17v2.39ZM435.28,35.3l-12.59-.02c4.65-2.39,10.2-2.95,12.59-3.08v3.09ZM435.28,29.78c-.95.04-2.4.15-4.1.41l4.1-15.87v15.46ZM444.05,40.11c-.79-.81-1.74-1.62-2.87-2.39h9.39c-1.52.84-3.67,1.77-6.52,2.39ZM437.7,14.33l4.1,15.87c-1.71-.26-3.15-.37-4.1-.41v-15.46ZM437.7,32.21c2.4.13,7.94.69,12.59,3.08l-12.59.02v-3.09ZM437.7,38.43c1.31.69,2.41,1.42,3.33,2.17-1.04.12-2.15.19-3.33.21v-2.39ZM437.7,43.24c2.02-.03,3.85-.21,5.49-.49,2.12,2.61,2.56,5.17,2.59,6.71l-8.08-3.22v-3Z"/><path d="M454.36,62.48c-.87,0-1.45.78-1.4,1.4,0,.8.62,1.43,1.41,1.43.78,0,1.44-.65,1.43-1.42,0-.79-.65-1.41-1.44-1.41Z"/></g></svg>