<?xml version="1.0" standalone="no"?>
<!DOCTYPE svg PUBLIC "-//W3C//DTD SVG 20010904//EN"
 "http://www.w3.org/TR/2001/REC-SVG-20010904/DTD/svg10.dtd">
<svg version="1.0" xmlns="http://www.w3.org/2000/svg"
 width="670.000000pt" height="670.000000pt" viewBox="0 0 670.000000 670.000000"
 preserveAspectRatio="xMidYMid meet">
<metadata>
Created by potrace 1.14, written by Peter Selinger 2001-2017
</metadata>
<g transform="translate(0.000000,670.000000) scale(0.100000,-0.100000)"
fill="#000000" stroke="none">
<path d="M2945 6668 c-58 -36 -506 -294 -550 -317 -16 -9 -32 -19 -35 -22 -3
-3 -12 -9 -20 -13 -8 -4 -24 -12 -35 -19 -11 -7 -56 -33 -100 -58 -141 -80
-413 -238 -447 -259 -18 -11 -40 -23 -48 -27 -8 -3 -17 -9 -20 -12 -3 -3 -23
-15 -45 -26 -22 -11 -86 -48 -142 -82 -57 -34 -103 -59 -103 -55 0 4 -4 2 -8
-4 -4 -5 -29 -23 -57 -38 -27 -16 -70 -40 -95 -54 -25 -13 -57 -34 -72 -44
-16 -11 -28 -16 -28 -11 0 4 -4 3 -8 -3 -4 -6 -65 -44 -137 -84 -71 -41 -136
-80 -143 -87 -8 -8 -16 -30 -19 -51 -4 -31 4 -51 48 -127 28 -49 60 -104 69
-120 9 -17 50 -87 90 -155 40 -69 82 -143 94 -165 12 -22 24 -41 29 -43 4 -2
7 -8 7 -13 0 -5 29 -57 64 -116 35 -60 74 -128 88 -153 14 -25 42 -73 62 -107
124 -216 124 -215 186 -324 l39 -69 -87 5 c-138 9 -192 16 -302 36 -30 6 -64
12 -75 15 -11 2 -27 5 -35 7 -8 2 -28 7 -45 11 -150 38 -395 140 -535 222 -49
29 -162 105 -170 115 -27 33 -106 89 -125 89 -38 0 -73 -20 -85 -51 -13 -31
-4 -290 14 -379 2 -14 10 -57 16 -97 14 -85 13 -82 29 -158 15 -72 60 -242 71
-270 5 -11 20 -58 35 -105 24 -77 82 -234 105 -285 70 -158 154 -327 202 -408
15 -26 28 -50 28 -52 0 -14 222 -348 277 -415 6 -8 33 -42 60 -75 98 -122 318
-350 408 -421 28 -21 55 -44 60 -50 44 -47 284 -204 421 -274 92 -48 250 -116
289 -125 6 -1 21 -6 35 -12 14 -5 57 -18 97 -28 57 -15 74 -24 84 -44 8 -14
26 -45 41 -68 15 -23 28 -44 28 -48 0 -3 15 -29 33 -58 19 -29 45 -72 59 -97
14 -25 62 -105 107 -179 44 -73 81 -137 81 -142 0 -5 5 -9 10 -9 6 0 10 -4 10
-9 0 -9 252 -438 270 -458 5 -7 10 -15 10 -19 0 -3 14 -26 30 -51 17 -24 30
-48 30 -53 0 -5 14 -22 31 -39 21 -22 40 -31 63 -31 33 0 53 16 251 196 44 40
89 81 101 91 211 184 284 257 284 284 0 45 -13 70 -41 84 -23 12 -98 15 -436
15 l-408 0 -150 252 c-82 138 -160 268 -172 288 l-22 36 42 -3 c23 -3 279 -5
569 -6 290 -1 529 -5 531 -7 14 -17 117 -193 117 -201 0 -5 4 -9 8 -9 4 0 13
-12 20 -27 7 -16 18 -37 25 -48 42 -68 154 -253 163 -270 9 -18 271 -459 294
-495 5 -8 27 -45 50 -83 23 -37 52 -74 65 -83 35 -23 82 -11 130 32 22 20 76
69 120 109 44 41 91 83 104 94 34 30 168 149 220 198 25 23 55 50 67 60 45 39
51 100 14 137 -20 20 -31 21 -439 24 l-419 3 -111 184 c-61 102 -111 189 -111
194 0 5 -3 11 -8 13 -10 4 -97 150 -97 163 0 5 41 10 95 11 91 2 153 7 230 19
43 6 75 13 75 15 0 1 13 4 28 6 69 12 247 84 357 145 100 56 197 134 303 242
78 79 167 195 167 216 0 6 4 11 9 11 28 0 167 337 185 450 3 19 8 46 11 60 21
104 22 333 1 436 -2 12 -7 37 -10 56 -22 140 -126 393 -201 492 -14 18 -25 38
-25 44 0 7 -4 12 -10 12 -5 0 -16 12 -24 28 -24 44 -152 173 -262 262 -33 27
-112 80 -119 80 -4 0 -13 7 -21 15 -12 12 -12 15 -2 16 7 0 22 2 33 5 11 2 40
6 65 8 157 17 313 68 528 173 75 37 139 68 142 68 8 3 126 58 290 138 85 41
189 91 230 110 331 155 430 207 470 249 39 42 70 113 70 165 0 81 -52 164
-124 198 -43 21 -134 33 -169 24 -16 -4 -27 -3 -27 2 0 6 -4 8 -8 5 -9 -6 -66
-7 -199 -5 -50 1 -96 -2 -102 -5 -6 -4 -11 -3 -11 2 0 5 -20 6 -45 2 -43 -7
-45 -6 -55 25 -6 18 -13 43 -15 56 -3 13 -22 60 -43 104 -99 204 -286 380
-523 489 -69 32 -178 72 -224 83 -11 2 -24 5 -30 7 -12 3 -66 14 -110 21 -179
30 -422 23 -570 -17 -22 -5 -50 -12 -63 -14 -75 -14 -278 -103 -354 -156 -14
-10 -29 -18 -32 -18 -4 0 -17 -9 -29 -21 -34 -32 -54 -40 -65 -26 -10 13 -153
259 -183 315 -9 18 -22 38 -27 45 -5 7 -22 37 -38 67 -16 30 -31 57 -34 60 -3
3 -30 48 -59 100 -30 52 -62 109 -71 125 -10 17 -59 101 -109 189 -50 87 -91
162 -91 167 0 5 -3 9 -8 9 -4 0 -13 12 -20 28 -23 51 -46 71 -87 76 -33 5 -49
0 -90 -26z"/>
</g>
</svg>
